<?xml version="1.0" encoding="utf-8"?>
<!-- Generator: Adobe Illustrator 24.3.0, SVG Export Plug-In . SVG Version: 6.00 Build 0)  -->
<svg version="1.1" id="Layer_1" xmlns="http://www.w3.org/2000/svg" xmlns:xlink="http://www.w3.org/1999/xlink" x="0px" y="0px"
	 viewBox="0 0 167 160" style="enable-background:new 0 0 167 160;" xml:space="preserve">
<style type="text/css">
	.st0{fill-rule:evenodd;clip-rule:evenodd;fill:#0168FA;}
	.st1{fill:none;stroke:#FFFFFF;stroke-width:1.35;stroke-linecap:round;}
	.st2{opacity:0.36;fill-rule:evenodd;clip-rule:evenodd;fill:#6D7A84;}
	.st3{opacity:0.75;fill-rule:evenodd;clip-rule:evenodd;fill:#F2F6F7;}
</style>
<desc>Created with Sketch.</desc>
<g id="Group-33">
	<rect id="Rectangle" class="st0" width="167" height="160"/>
	<g id="Group-25" transform="translate(-0.000001, 0.000000)">
		<line id="Stroke-3" class="st1" x1="83.2" y1="27.5" x2="83.2" y2="35"/>
		<line id="Stroke-4" class="st1" x1="83.2" y1="133.8" x2="83.2" y2="126.3"/>
		<line id="Stroke-5" class="st1" x1="137.6" y1="79.4" x2="130.1" y2="79.4"/>
		<line id="Stroke-5_1_" class="st1" x1="36.6" y1="79.4" x2="29.1" y2="79.4"/>
		<g id="Group-16" transform="translate(0.450000, 0.000000)">
			<path id="Fill-6" class="st2" d="M123.3,80.7c0,22.4-18.1,40.5-40.5,40.5s-40.5-18.1-40.5-40.5c0-22.4,18.1-40.5,40.5-40.5
				S123.3,58.3,123.3,80.7"/>
			<path id="Fill-8" class="st3" d="M113.1,87.8l-1,1.5v1.3c0,0.6-0.2,1.2-0.8,1.6c-0.3,0.2-0.5,0.2-0.8,0.2c-0.3,0-0.6-0.1-0.9-0.2
				l-1.7-1c-0.8-0.5-1.1-1.4-0.8-2.3l1.4-3.4c0.2-0.5,0.6-0.8,1-1c0.5-0.2,1-0.2,1.4,0.1l1.4,0.7c0.5,0.2,0.7,0.6,0.9,1.1
				C113.4,86.9,113.3,87.4,113.1,87.8 M61.8,55c-0.1-1,0.6-1.8,1.5-1.9l2.2-0.3c0-0.4,0.1-0.7,0.3-1l2.3-3.2v-1.9
				c0-1,1.1-2.4,2.1-2.4h3c0.4,0,0.9,0.5,1.2,0.7l2.3,2.2c0.5,0.5,0.8,1.2,0.6,1.9c-0.2,0.7-0.7,1.2-1.4,1.4L74,50.8l-0.6,2
				c-0.2,0.8-0.9,1.7-1.7,1.7h-0.8l-0.3,1.1c-0.2,0.8-0.9,1-1.8,1h-5.1C62.7,56.6,61.9,55.9,61.8,55 M121,69.2l-2.5,5l0.1,5.4
				c0,0.7-0.4,1.3-1,1.6c-0.6,0.3-1.3,0.3-1.9-0.1l-2.4-1.7l-0.1,0.1c-0.3,0.2-0.8,0.4-1.2,0.3l-2.3-0.2l-1.9,2.3
				c-0.4,0.5-1.1,0.8-1.8,0.6l-1.7-0.4l-3.4,3.6l4.1,2.8c0.5,0.3,0.7,0.8,0.8,1.4c0,0.5-0.2,1.1-0.6,1.5l-1.9,1.8
				c-0.3,0.3-0.8,0.5-1.3,0.5c-0.3,0-0.6-0.1-0.8-0.2c0,0-3.9-1.6-5.2-2.7c-0.8-0.6-3.6-4.5-3.5-5.9c0.1-1.4,2.4-2.3,1.2-2.9
				c-1.1-0.6-1.4-0.6-2.2-1c-0.8-0.3-1.6-0.6-1.8-1.4c-0.2-0.8,0.3-1.7,1.1-2c0,0,2.9-0.4,3.3-1.5c0.4-1-0.4-1.8-0.4-1.8
				s-2.2-2.2-3.4-2.3c-1.1-0.1-1.9,2.6-1.9,2.6l-2.3,4.8c-0.3,0.6-0.8,1-1.4,1c-0.6,0.1-1.2-0.1-1.6-0.6c0-0.5-0.5-1.6-0.7-2.6
				c-0.3-1-0.3-1.8-1.1-1.8c-0.8,0-1.8,1-1.8,1c-0.5,0.9-1.5,1.2-2.4,0.8l-1.7-0.8l-2.9,1.3c-0.2,0.1-0.4,0.1-0.5,0.2
				c-0.1,0.2-0.2,0.4-0.3,0.6l-1.5,1.9c-0.4,0.5-0.9,0.7-1.4,0.7c-0.4,0-0.8-0.1-1.1-0.4l-1-0.8c-0.4-0.3-0.7-0.8-0.7-1.3
				c0-0.5,0.2-1,0.5-1.4l1.1-1.1c0,0,7.8-3.4,7.9-5.7c0.1-2.3,0-0.1,0-0.1c-0.1-0.6-0.1-2.4,0.4-2.9c0.5-0.4,1.2-0.5,1.8-0.3
				c0,0,4,3.3,5.2,3.1c1.2-0.2,0-1.9,0.8-3c0.7-1.1,2.6-1.3,2.6-1.3l0.2-1.1l-1.8-0.9c-0.5-0.2-0.8-0.6-1-1.1l-0.9-2.7
				c-0.2-0.7,0-1.5,0.6-2c0.6-0.5,1.4-0.6,2-0.2l2.9,1.5l0.5-0.1l0.2-1.2c0.2-0.9,0.9-1.7,1.8-1.7H91c0.3-1,0.9-1,1.7-1h2.5l0.1-1.8
				l-1-0.5c-0.5-0.3-1.1-0.9-1.1-1.5v-1.2L92.3,50c-0.5-0.3-0.5-0.7-0.6-1.3c-0.1-0.5,0-1.1,0.4-1.5l1.7-2.1l1.4-2.3
				c-4-1.3-8.3-2.1-12.8-2.1c-5.8,0-11.4,1.3-16.4,3.5l0.7,1.5c0.4,0.9,0.1,1.9-0.7,2.4l-2.5,1.4c-0.3,0.2-0.6,0.2-0.9,0.2
				c-0.6,0-1.1-0.3-1.5-0.8c-0.5-0.7-0.4-1.6,0.2-2.2c-2.2,1.3-4.2,3.6-6.1,4.7h0.2c0.6,0,1.2,0.3,1.5,0.8c0.3,0.5,0.4,1.1,0.1,1.7
				l-1.7,3.7c-0.2,0.5-0.7,0.9-1.2,1c-0.1,0-0.3,0.1-0.4,0.1c-0.4,0-0.8-0.1-1.1-0.4l-2.2-1.7c-5.1,6.7-8.2,15.1-8.2,24.2
				c0,22.1,18.1,40.1,40.3,40.1c0.2,0,0.3,0,0.5,0l-2.5-1.6c-0.5-0.3-0.8-0.9-0.8-1.5c0-0.6,0.3-1.2,0.8-1.5c0,0,2.1-0.9,2.1-1.8
				c0-0.9-7.3-9.3-8.7-10.3c-1.4-1-11.9-3.8-11.9-3.8c-0.8-0.2-1.2-0.9-1.2-1.8v-6.3c0-0.6,0.1-1.2,0.6-1.5l7-4.8
				c0.4-0.3,1-0.4,1.5-0.3l5.1,1.3l2-0.5c0.3-0.1,0.6-0.1,0.9,0c0,0,1.8,1.5,3.6,1.5c1.8,0,1.7-0.5,1.9-0.7c0.4-0.4,1-0.6,1.6-0.4
				l4.1,0.9c0.6,0.1,1.1,0.6,1.3,1.2c0,0,0.9,4.7,2.1,5.7c1.2,1,6.9,4.7,6.9,4.7c0.4,0.3,0.7,0.7,0.8,1.3c0.1,0.5-0.1,1-0.4,1.4
				c0,0-6.3,4.7-6.9,6.1c-0.4,1,0,1.5,0.4,1.9c0.7,0.8,2.4,1.6,2.4,1.6c0.6,0.6,0.7,1.6,0.2,2.3l-5.4,6.2c0,0-0.1,0.1-0.1,0.1
				c18.5-3.6,32.5-19.9,32.5-39.4C122.7,76.8,122.1,72.9,121,69.2"/>
			<path id="Stroke-10" class="st1" d="M78.8,158.6c0-0.5,0.3-0.8,0.8-0.8H86c0.5,0,0.8,0.4,0.8,0.8H78.8z M73.9,141.3h17.7
				c0.8,0,1.4,0.7,1.4,1.5v10.9c0,0.8-0.6,1.5-1.4,1.5H73.9c-0.8,0-1.5-0.7-1.5-1.5v-10.9C72.5,142,73.1,141.3,73.9,141.3z"/>
			<path id="Stroke-12" class="st1" d="M150.8,88.4c0-0.5,0.3-0.8,0.8-0.8h6.4c0.5,0,0.8,0.4,0.8,0.8H150.8z M145.9,71.1h17.7
				c0.8,0,1.4,0.7,1.4,1.5v10.9c0,0.8-0.6,1.5-1.4,1.5h-17.7c-0.8,0-1.5-0.7-1.5-1.5V72.5C144.5,71.8,145.1,71.1,145.9,71.1z"/>
			<path id="Stroke-12_1_" class="st1" d="M6.8,88.4c0-0.5,0.3-0.8,0.8-0.8H14c0.5,0,0.8,0.4,0.8,0.8H6.8z M1.9,71.1h17.7
				c0.8,0,1.4,0.7,1.4,1.5v10.9c0,0.8-0.6,1.5-1.4,1.5H1.9c-0.8,0-1.5-0.7-1.5-1.5V72.5C0.5,71.8,1.1,71.1,1.9,71.1z"/>
			<path id="Stroke-14" class="st1" d="M78.8,18.2c0-0.5,0.3-0.8,0.8-0.8H86c0.5,0,0.8,0.4,0.8,0.8H78.8z M73.9,0.9h17.7
				c0.8,0,1.4,0.7,1.4,1.5v10.9c0,0.8-0.6,1.5-1.4,1.5H73.9c-0.8,0-1.5-0.7-1.5-1.5V2.3C72.5,1.6,73.1,0.9,73.9,0.9z"/>
		</g>
	</g>
</g>
</svg>
