<?xml version="1.0" encoding="utf-8"?>
<!-- Generator: Adobe Illustrator 24.3.0, SVG Export Plug-In . SVG Version: 6.00 Build 0)  -->
<svg version="1.1" id="Layer_1" xmlns="http://www.w3.org/2000/svg" xmlns:xlink="http://www.w3.org/1999/xlink" x="0px" y="0px"
	 viewBox="0 0 185 113" style="enable-background:new 0 0 185 113;" xml:space="preserve">
<style type="text/css">
	.st0{fill-rule:evenodd;clip-rule:evenodd;fill:#0168FA;}
	.st1{fill-rule:evenodd;clip-rule:evenodd;fill:#0168FA;stroke:#F9F9F9;}
	.st2{fill:none;stroke:#FFFFFF;stroke-width:0.9;}
	.st3{opacity:0.74;fill-rule:evenodd;clip-rule:evenodd;fill:#DFE6EA;}
	.st4{fill:none;stroke:#0168FA;stroke-width:1.35;stroke-linecap:round;}
	.st5{fill:#0168FA;}
	.st6{fill:none;stroke:#FFFFFF;stroke-width:1.35;}
	.st7{fill:#FFFFFF;}
	.st8{font-family:'IBM Plex Sans, sans-serif';}
	.st9{font-size:12.3277px;}
</style>
<desc>Created with Sketch.</desc>
<g id="Group-30">
	<rect id="Rectangle" class="st0" width="185" height="113"/>
	<g id="Group-20">
		<g id="Group-11">
			<g id="Group-14">
				<g id="Group-5" transform="translate(58.499998, 41.399999)">
					<line id="Fill-1_2_" class="st1" x1="126" y1="9.4" x2="0" y2="9.4"/>
					<circle id="Oval" class="st2" cx="8.1" cy="2.7" r="2.3"/>
					<circle id="Oval_1_" class="st2" cx="16.2" cy="2.7" r="2.3"/>
					<circle id="Oval_2_" class="st2" cx="24.3" cy="2.7" r="2.3"/>
				</g>
				<g id="Group-10">
					<path id="Oval_3_" class="st3" d="M33.8,67.5c10.2,0,19.4-4.5,25.6-11.7c2.5-2.9-1.4-16.2,0-19.8c1.5-3.8,8.2,2,8.2-2.3
						C67.5,15.1,52.4,0,33.8,0S0,15.1,0,33.8S15.1,67.5,33.8,67.5z"/>
					<line id="Stroke-12" class="st4" x1="27.9" y1="42.8" x2="42.3" y2="42.8"/>
					<path id="Combined-Shape" class="st5" d="M34.9,22.5c0.3,0,0.6,0.3,0.7,0.6l0,0.1l0,12.8l5.8-5.8c0.2-0.2,0.6-0.3,0.9-0.1
						l0.1,0.1c0.2,0.2,0.3,0.6,0.1,0.9l-0.1,0.1L35.4,38c0,0-0.1,0.1-0.1,0.1l-0.4,0.4l-7.7-7.7c-0.3-0.3-0.3-0.7,0-1
						c0.2-0.2,0.6-0.3,0.9-0.1l0.1,0.1l6,6.1l0-12.8C34.2,22.8,34.5,22.5,34.9,22.5z"/>
				</g>
			</g>
		</g>
		<path id="Rectangle_1_" class="st6" d="M61.9,34.9h119.3c1.5,0,2.7,1.2,2.7,2.7v71.6c0,1.5-1.2,2.7-2.7,2.7H61.9
			c-1.5,0-2.7-1.2-2.7-2.7V37.6C59.2,36.1,60.4,34.9,61.9,34.9z"/>
	</g>
</g>
<text transform="matrix(1.0868 0 0 1 80.5493 81.1182)" class="st7 st8 st9">$ localtoglobal</text>
<g>
	<text transform="matrix(1.0868 0 0 1 134.6156 81.1182)" class="st7 st8 st9">8080</text>
</g>
</svg>
